#tb 0: 1/25
#media_type 0: video
#codec_id 0: rawvideo
#dimensions 0: 352x288
#sar 0: 0/1
0,          0,          0,        1,   405504, 0x914ea875
0,          1,          1,        1,   405504, 0xaf8fe510
0,          2,          2,        1,   405504, 0x54e64164
0,          3,          3,        1,   405504, 0x5520b932
0,          4,          4,        1,   405504, 0xed560edb
0,          5,          5,        1,   405504, 0xc8c86b64
0,          6,          6,        1,   405504, 0x78052ebd
0,          7,          7,        1,   405504, 0x44def6af
0,          8,          8,        1,   405504, 0xe0b93f88
0,          9,          9,        1,   405504, 0x1dfbfcf8
0,         10,         10,        1,   405504, 0xf3319fc5
0,         11,         11,        1,   405504, 0xc5adce21
0,         12,         12,        1,   405504, 0x92fe4c6d
0,         13,         13,        1,   405504, 0xcd7a20dc
0,         14,         14,        1,   405504, 0xbbfcb344
0,         15,         15,        1,   405504, 0x1cf4ad0c
0,         16,         16,        1,   405504, 0xfb1585e8
0,         17,         17,        1,   405504, 0x6b6a8a84
0,         18,         18,        1,   405504, 0x249fc536
0,         19,         19,        1,   405504, 0x0bfebc5a
0,         20,         20,        1,   405504, 0xfd0403c8
0,         21,         21,        1,   405504, 0x4c72e546
0,         22,         22,        1,   405504, 0xbe57c828
0,         23,         23,        1,   405504, 0xde42c284
0,         24,         24,        1,   405504, 0xf0d62d4e
0,         25,         25,        1,   405504, 0x969496df
0,         26,         26,        1,   405504, 0x38a57b49
0,         27,         27,        1,   405504, 0x7b94d7f2
0,         28,         28,        1,   405504, 0xd78fc8b3
0,         29,         29,        1,   405504, 0xeae36941
0,         30,         30,        1,   405504, 0x5abfc133
0,         31,         31,        1,   405504, 0xd237956d
0,         32,         32,        1,   405504, 0xda8bf7f7
0,         33,         33,        1,   405504, 0x9234ccc8
0,         34,         34,        1,   405504, 0xba13c11d
0,         35,         35,        1,   405504, 0xc09e28f9
0,         36,         36,        1,   405504, 0xe7e83a6f
0,         37,         37,        1,   405504, 0x61c9ce4e
0,         38,         38,        1,   405504, 0x0cc9749d
0,         39,         39,        1,   405504, 0x4017bb8b
0,         40,         40,        1,   405504, 0x83a8c2ae
0,         41,         41,        1,   405504, 0x7bfde638
0,         42,         42,        1,   405504, 0xf3c2b1bb
0,         43,         43,        1,   405504, 0x1cc89243
0,         44,         44,        1,   405504, 0x3375cc72
0,         45,         45,        1,   405504, 0x15714d35
0,         46,         46,        1,   405504, 0x423f54b3
0,         47,         47,        1,   405504, 0x84e6461e
0,         48,         48,        1,   405504, 0xc8e2ecad
0,         49,         49,        1,   405504, 0x72db78da
